# xmcd
#
# Track frame offsets:
#	150
#	16294
#	30432
#	44354
#	59445
#	77937
#	94525
#	106376
#	124517
#	143924
#	155304
#	170635
#
# Disc length: 2454 seconds
#
# Revision: 0
# Processed by: cddbd v1.5.1PL2 Copyright (c) Steve Scherf et al.
# Submitted via: dBpowerAMP V4.0
#
DISCID=9309940c
DTITLE=Various Artist - Grand Slam - The Homerun Hitters of Beach Music
DYEAR=1900
DGENRE=Beach
TTITLE0=Holiday Band - I'm Man Enough
TTITLE1=Holiday Band - I'm Your Puppet
TTITLE2=Holiday Band - She Blew A Good Thing (Live)
TTITLE3=Jim Quick and The Coastline Band - Swamps of the Old Santee
TTITLE4=Jim Quick and The Coastline Band - Loveless
TTITLE5=Jim Quick and The Coastline Band - Late At Night (New Version)
TTITLE6=Men of Distinction - Donut And A Dream
TTITLE7=Men of Distinction - Big and Hot
TTITLE8=Men of Distinction - Georgia (Remix)
TTITLE9=Band of Oz - Fly Me To The Moon (Remix)
TTITLE10=Band of Oz - All Day Music
TTITLE11=Band of Oz - Luckey To Be Loved By You
EXTD=
EXTT0=
EXTT1=
EXTT2=
EXTT3=
EXTT4=
EXTT5=
EXTT6=
EXTT7=
EXTT8=
EXTT9=
EXTT10=
EXTT11=
PLAYORDER=
